<?xml version="1.0" encoding="UTF-8" standalone="no"?>
<!-- Created with Inkscape (http://www.inkscape.org/) -->
<svg
   xmlns:svg="http://www.w3.org/2000/svg"
   xmlns="http://www.w3.org/2000/svg"
   version="1.0"
   width="162.5"
   height="162.5"
   id="svg101">
  <defs
     id="defs9" />
  <path
     d="M 7.10938,16.25 C 7.10938,16.25 6.60156,151.328 6.60156,151.328 C 6.60156,151.328 154.375,151.328 154.375,151.328 C 154.375,151.328 154.375,32.5 154.375,32.5 C 154.375,32.5 139.648,16.25 139.648,16.25 C 139.648,16.25 7.61719,16.25 7.10938,16.25 z "
     transform="matrix(1,0,0,1.08647,1.01562,-9.02225)"
     style="font-size:12px;fill:#f0f0f8;fill-opacity:0.19607795;fill-rule:evenodd;stroke:#4a4b4f;stroke-width:11.99230003;stroke-linecap:round;stroke-linejoin:round"
     id="path1047" />
  <path
     d="M 39.6094,11.1719 C 39.6094,11.1719 39.1016,65.5078 39.1016,65.5078 C 39.1016,65.5078 124.414,65.5078 124.414,65.5078 C 124.414,65.5078 123.906,10.664 123.906,10.664"
     style="font-size:12px;fill:none;fill-rule:evenodd;stroke:#4a4b4f;stroke-width:6.25;stroke-linejoin:round"
     id="path1049" />
  <rect
     width="17.2656"
     height="39.609413"
     ry="2.0576301"
     x="98.007828"
     y="18.789108"
     style="font-size:12px;fill:#4a4b4f;fill-rule:evenodd"
     id="rect1054" />
  <rect
     width="75.593361"
     height="75.593361"
     x="4.1139221"
     y="4.6281409"
     style="font-size:12px;fill:#e3f0f8;fill-opacity:0.74901997;fill-rule:evenodd;stroke:#2f3338;stroke-width:6.25;stroke-linecap:round;stroke-linejoin:round"
     id="rect711" />
  <path
     d="M 136.643,126.6896 C 117.9304,150.3654 86.56052,160.0575 57.75412,151.0632 C 28.94772,142.069 8.665614,116.2496 6.748719,86.13267 C 4.831824,56.01572 21.6768,27.83324 49.11043,15.25942 C 76.54405,2.685606 108.8896,8.32231 130.4529,29.4346"
     transform="matrix(0.37484,0,0,0.37484,12.35495,11.862)"
     style="font-size:12px;fill:none;fill-opacity:0.19607795;fill-rule:evenodd;stroke:#4a4b4f;stroke-width:21.9368;stroke-linecap:round;stroke-linejoin:round"
     id="path249" />
  <path
     d="M 115.273,37.0703 C 115.273,37.0703 136.094,30.9766 136.094,30.9766 C 136.094,30.9766 133.554,9.14066 133.554,9.14066"
     transform="matrix(0.37484,0,0,0.37484,11.59355,11.67164)"
     style="font-size:12px;fill:none;fill-rule:evenodd;stroke:#4a4b4f;stroke-width:21.9368;stroke-linecap:round;stroke-linejoin:round"
     id="path1223" />
</svg>
