<?xml version="1.0" encoding="UTF-8" standalone="no"?>
<!-- Created with Inkscape (http://www.inkscape.org/) -->
<svg
   xmlns:svg="http://www.w3.org/2000/svg"
   xmlns="http://www.w3.org/2000/svg"
   version="1.0"
   width="162.5"
   height="162.5"
   id="svg101">
  <defs
     id="defs5" />
  <path
     d="M 7.10938,16.25 C 7.10938,16.25 6.60156,151.328 6.60156,151.328 C 6.60156,151.328 154.375,151.328 154.375,151.328 C 154.375,151.328 154.375,32.5 154.375,32.5 C 154.375,32.5 139.648,16.25 139.648,16.25 C 139.648,16.25 7.61719,16.25 7.10938,16.25 z "
     transform="matrix(1,0,0,1.08647,1.01562,-9.02225)"
     style="font-size:12px;fill:#f0f0f8;fill-opacity:0.19607795;fill-rule:evenodd;stroke:#4a4b4f;stroke-width:11.99230003;stroke-linecap:round;stroke-linejoin:round"
     id="path1047" />
  <path
     d="M 58.85913,9.931027 C 58.85913,9.931027 58.45142,45.70768 58.45142,45.70768 C 58.45142,45.70768 126.9496,45.70768 126.9496,45.70768 C 126.9496,45.70768 126.5417,9.596607 126.5417,9.596607"
     style="font-size:12px;fill:none;fill-rule:evenodd;stroke:#4a4b4f;stroke-width:6.25;stroke-linejoin:round"
     id="path1049" />
</svg>
